<?xml version="1.0" standalone="no"?>
<!DOCTYPE svg PUBLIC "-//W3C//DTD SVG 20010904//EN"
 "http://www.w3.org/TR/2001/REC-SVG-20010904/DTD/svg10.dtd">
<svg version="1.0" xmlns="http://www.w3.org/2000/svg"
 width="260.000000pt" height="260.000000pt" viewBox="0 0 260.000000 260.000000"
 preserveAspectRatio="xMidYMid meet">
<metadata>
Created by potrace 1.11, written by Peter Selinger 2001-2013
</metadata>
<g transform="translate(0.000000,260.000000) scale(0.100000,-0.100000)"
fill="#000000" stroke="none">
<path d="M1120 2590 c-25 -4 -58 -10 -75 -13 -44 -7 -114 -26 -161 -44 l-42
-15 0 -371 c0 -205 -1 -376 -2 -382 -1 -5 -1 -14 0 -20 1 -5 2 -97 2 -202 0
-173 2 -193 16 -194 10 0 73 -1 142 -1 69 1 134 -1 145 -3 20 -4 20 -11 18
-292 -2 -158 -3 -295 -3 -303 0 -14 -1 -155 -1 -175 1 -78 1 -183 -1 -195 -1
-9 2 -28 6 -43 4 -17 2 -27 -4 -27 -6 0 -9 -3 -7 -8 3 -4 8 -27 11 -52 13 -97
32 -156 65 -210 24 -38 29 -40 131 -35 95 5 108 6 210 26 216 43 449 167 630
336 l62 57 -7 51 c-9 69 -65 182 -116 232 -65 64 -165 112 -274 130 -16 3
-118 6 -225 7 l-195 2 0 159 0 160 190 1 c189 1 228 5 295 26 164 52 274 186
297 363 7 52 7 170 0 216 -32 207 -189 359 -412 396 -68 12 -205 6 -260 -11
-5 -2 -23 -7 -40 -11 -16 -4 -32 -11 -35 -14 -3 -3 -21 -14 -42 -25 -43 -22
-113 -85 -155 -141 -49 -67 -82 -158 -85 -238 -1 -21 -6 -40 -11 -44 -13 -8
-296 -7 -304 1 -10 10 -5 91 11 181 8 45 59 181 83 224 71 123 197 247 308
301 17 8 32 17 35 20 7 8 160 59 195 65 27 4 68 9 170 19 17 2 54 0 83 -4 71
-9 51 9 -43 39 -74 24 -86 27 -150 41 -22 5 -51 12 -65 15 -40 10 -341 14
-390 5z"/>
<path d="M486 2317 c-35 -27 -150 -140 -191 -188 -110 -127 -225 -354 -260
-517 -3 -12 -7 -32 -10 -44 -8 -34 -15 -86 -21 -150 -5 -48 -3 -58 13 -65 14
-7 324 -9 474 -4 l25 1 0 495 c0 272 0 495 0 495 -1 0 -14 -10 -30 -23z"/>
<path d="M2549 1590 c-4 -80 -28 -168 -66 -245 -35 -69 -103 -163 -149 -205
-53 -48 -139 -110 -153 -110 -29 0 -5 -22 56 -52 70 -35 167 -117 214 -180
l27 -38 16 35 c92 193 124 498 80 754 -3 18 -9 43 -14 55 -8 18 -9 16 -11 -14z"/>
<path d="M34 1027 c-13 -7 -13 -11 -2 -24 7 -9 12 -18 10 -20 -5 -7 11 -60 44
-148 61 -163 169 -328 297 -456 61 -60 207 -176 237 -187 8 -3 17 -8 20 -12
16 -20 230 -112 230 -99 0 2 -5 20 -11 39 -7 21 -12 160 -15 354 -2 175 -6
321 -9 324 -2 3 0 11 6 18 6 8 6 14 0 18 -6 4 -6 18 -1 35 4 16 6 32 3 35 -9
9 -11 66 -3 71 11 7 -1 55 -14 56 -75 6 -781 2 -792 -4z"/>
</g>
</svg>
