<svg xmlns="http://www.w3.org/2000/svg" style="display: none;">
    <symbol id="icon-facebook" viewBox="0 0 52 96.1"><path d="M50 0H37.5c-14 0-23.1 9.3-23.1 23.7v10.9H2c-1.1 0-2 .9-2 2v15.8c0 1.1.9 2 2 2h12.5v39.9c0 1.1.9 2 2 2h16.4c1.1 0 2-.9 2-2v-40h14.7c1.1 0 2-.9 2-2V36.5c0-.5-.2-1-.6-1.4s-.9-.6-1.4-.6H34.8v-9.2c0-4.4 1.1-6.7 6.8-6.7H50c1.1 0 2-.9 2-2V2c0-1.1-.9-2-2-2z"/></symbol>
    
    <symbol id="icon-twitter" viewBox="0 0 512 416"><path d="M512 49.2c-19 8.4-39.3 13.9-60.5 16.6 21.8-13 38.4-33.4 46.2-58-20.3 12.1-42.7 20.6-66.6 25.4C411.9 12.7 384.4 0 354.5 0c-58.1 0-104.9 47.2-104.9 105 0 8.3.7 16.3 2.4 23.9-87.3-4.2-164.5-46.1-216.4-109.8-9.1 15.7-14.4 33.7-14.4 53.1 0 36.4 18.7 68.6 46.6 87.2-16.9-.3-33.4-5.2-47.4-12.9v1.2c0 51 36.4 93.4 84.1 103.1-8.5 2.3-17.9 3.5-27.5 3.5-6.7 0-13.5-.4-19.9-1.8 13.6 41.6 52.2 72.1 98.1 73.1-35.7 27.9-81.1 44.8-130.1 44.8-8.6 0-16.9-.4-25.1-1.4 46.5 30 101.6 47.1 161 47.1 193.2 0 298.8-160 298.8-298.7 0-4.6-.2-9.1-.4-13.6C480.2 89 497.7 70.5 512 49.2z"/></symbol>
    
    <symbol id="icon-linkedin" viewBox="0 0 310 309.3"><path id="XMLID_802_" d="M72.2 99.4H9.9c-2.8 0-5 2.2-5 5v199.9c0 2.8 2.2 5 5 5h62.2c2.8 0 5-2.2 5-5V104.4c.1-2.8-2.2-5-4.9-5z"/><path id="XMLID_803_" d="M41.1 0C18.4 0 0 18.4 0 41s18.4 41 41.1 41c22.6 0 41-18.4 41-41S63.7 0 41.1 0z"/><path id="XMLID_804_" d="M230.5 94.4c-25 0-43.5 10.7-54.7 23v-13c0-2.8-2.2-5-5-5h-59.6c-2.8 0-5 2.2-5 5v199.9c0 2.8 2.2 5 5 5h62.1c2.8 0 5-2.2 5-5v-98.9c0-33.3 9.1-46.3 32.3-46.3 25.3 0 27.3 20.8 27.3 48v97.2c0 2.8 2.2 5 5 5H305c2.8 0 5-2.2 5-5V194.7c0-49.6-9.5-100.3-79.5-100.3z"/></symbol>
</svg>